HIERARCHY
ROOT hip
{
	OFFSET 0.000000 0.000000 0.000000
	CHANNELS 6 Xposition Yposition Zposition Xrotation Zrotation Yrotation 
	JOINT abdomen
	{
		OFFSET 0.000000 3.422050 0.000000
		CHANNELS 3 Xrotation Zrotation Yrotation 
		JOINT chest
		{
			OFFSET 0.000000 8.486693 -0.684411
			CHANNELS 3 Xrotation Zrotation Yrotation 
			JOINT neck
			{
				OFFSET 0.000000 10.266162 -0.273764
				CHANNELS 3 Xrotation Zrotation Yrotation 
				JOINT head
				{
					OFFSET 0.000000 3.148285 0.000000
					CHANNELS 3 Xrotation Zrotation Yrotation 
					End Site
					{
						OFFSET 0.000000 3.148289 0.000000
					}
				}
			}
			JOINT lCollar
			{
				OFFSET 3.422053 6.707223 -0.821293
				CHANNELS 3 Yrotation Zrotation Xrotation 
				JOINT lShldr
				{
					OFFSET 3.285171 0.000000 0.000000
					CHANNELS 3 Zrotation Yrotation Xrotation 
					JOINT lForeArm
					{
						OFFSET 10.129278 0.000000 0.000000
						CHANNELS 3 Yrotation Zrotation Xrotation 
						JOINT lHand
						{
							OFFSET 8.486692 0.000000 0.000000
							CHANNELS 3 Zrotation Yrotation Xrotation 
							End Site
							{
								OFFSET 4.106464 0.000000 0.000000
							}
						}
					}
				}
			}
			JOINT rCollar
			{
				OFFSET -3.558935 6.707223 -0.821293
				CHANNELS 3 Yrotation Zrotation Xrotation 
				JOINT rShldr
				{
					OFFSET -3.148289 0.000000 0.000000
					CHANNELS 3 Zrotation Yrotation Xrotation 
					JOINT rForeArm
					{
						OFFSET -10.266159 0.000000 0.000000
						CHANNELS 3 Yrotation Zrotation Xrotation 
						JOINT rHand
						{
							OFFSET -8.349810 0.000000 0.000000
							CHANNELS 3 Zrotation Yrotation Xrotation 
							End Site
							{
								OFFSET -4.106464 0.000000 0.000000
							}
						}
					}
				}
			}
		}
	}
	JOINT lThigh
	{
		OFFSET 5.338403 -1.642589 1.368821
		CHANNELS 3 Xrotation Zrotation Yrotation 
		JOINT lShin
		{
			OFFSET -2.053232 -20.121670 0.000000
			CHANNELS 3 Xrotation Zrotation Yrotation 
			JOINT lFoot
			{
				OFFSET 0.000000 -19.300380 -1.231939
				CHANNELS 3 Xrotation Yrotation Zrotation 
				End Site
				{
					OFFSET 0.000000 -2.463878 4.653993
				}
			}
		}
	}
	JOINT rThigh
	{
		OFFSET -5.338403 -1.642589 1.368821
		CHANNELS 3 Xrotation Zrotation Yrotation 
		JOINT rShin
		{
			OFFSET 2.053232 -20.121670 0.000000
			CHANNELS 3 Xrotation Zrotation Yrotation 
			JOINT rFoot
			{
				OFFSET 0.000000 -19.300380 -1.231939
				CHANNELS 3 Xrotation Yrotation Zrotation 
				End Site
				{
					OFFSET 0.000000 -2.463878 4.653993
				}
			}
		}
	}
}
MOTION
Frames: 13
Frame Time: 0.033264
0.000000 6.771144 0.952190 -82.000397 0.000000 0.000000 -8.528577 -0.020871 -0.021238 -14.882192 -0.148779 -0.724836 30.330132 -6.335780 -5.001236 -11.358872 14.710547 3.138247 8.093657 -11.415924 21.582483 -63.938496 -53.355469 -8.250498 2.945671 -15.519964 34.933331 -45.614079 7.723719 -23.032572 -8.251506 11.240685 21.514099 64.048195 53.365131 -8.153684 -3.001329 15.188094 34.948444 45.611305 -7.727596 -23.033819 -12.723051 17.797768 42.064892 45.353935 1.264164 -0.462944 18.005230 2.054615 -2.000100 -13.503214 -16.991648 -39.775352 45.353977 -1.266047 0.458370 18.275421 -3.895760 3.636550 
0.000000 6.740505 0.952190 -82.000397 0.000000 0.000000 -8.528577 -0.020871 -0.021238 -14.456360 -0.148842 -0.724842 30.330132 -6.335780 -5.001236 -11.200650 14.779375 3.181704 7.880646 -11.608983 21.254047 -63.677616 -53.300522 -8.457161 2.948484 -15.502728 34.934132 -45.614079 7.723719 -23.032572 -8.030799 11.443062 21.189898 63.780903 53.309734 -8.365978 -3.001329 15.188094 34.948444 45.611305 -7.727596 -23.033819 -12.772575 17.862858 42.244560 45.353935 1.264164 -0.462944 18.011232 1.932361 -1.848185 -13.515107 -17.100367 -40.074551 45.353977 -1.266047 0.458370 18.261883 -3.677108 3.397440 
0.000000 6.709867 0.952190 -82.000397 0.000000 0.000000 -8.528577 -0.020871 -0.021238 -14.030559 -0.148906 -0.724849 30.330132 -6.335780 -5.001236 -11.042328 14.848083 3.225370 7.666367 -11.800824 20.924662 -63.417377 -53.245003 -8.663138 2.951296 -15.485494 34.934933 -45.614079 7.723719 -23.032572 -7.808780 11.644196 20.864681 63.514286 53.253735 -8.577562 -3.001329 15.188094 34.948444 45.611305 -7.727596 -23.033819 -12.821903 17.928089 42.424217 45.353935 1.264164 -0.462944 18.017555 1.810124 -1.696269 -13.526412 -17.209145 -40.373901 45.353977 -1.266047 0.458370 18.249266 -3.458409 3.158448 
0.000000 6.679228 0.952190 -82.000397 0.000000 0.000000 -8.528577 -0.020871 -0.021238 -13.604789 -0.148969 -0.724856 30.330132 -6.335780 -5.001236 -10.883904 14.916676 3.269246 7.450830 -11.991443 20.594341 -63.157818 -53.188931 -8.868434 2.954108 -15.468260 34.935738 -45.614079 7.723719 -23.032572 -7.585452 11.844076 20.538460 63.248352 53.197132 -8.788419 -3.001329 15.188094 34.948444 45.611305 -7.727596 -23.033819 -12.871030 17.993467 42.603886 45.353935 1.264164 -0.462944 18.024200 1.687906 -1.544352 -13.537131 -17.317972 -40.673389 45.353977 -1.266047 0.458370 18.237566 -3.239670 2.919569 
0.000000 6.648590 0.952190 -82.000397 0.000000 0.000000 -8.528577 -0.020871 -0.021238 -13.179067 -0.149033 -0.724864 30.330132 -6.335780 -5.001236 -10.725375 14.985148 3.313331 7.234040 -12.180818 20.263084 -62.898960 -53.132313 -9.073017 2.956919 -15.451022 34.936539 -45.614079 7.723719 -23.032572 -7.360822 12.042684 20.211235 62.983128 53.139950 -8.998556 -3.001329 15.188094 34.948444 45.611305 -7.727596 -23.033819 -12.919958 18.058989 42.783546 45.353935 1.264164 -0.462944 18.031170 1.565709 -1.392434 -13.547257 -17.426844 -40.973015 45.353977 -1.266047 0.458370 18.226780 -3.020899 2.680799 
0.000000 6.617951 0.952190 -82.000397 0.000000 0.000000 -8.528577 -0.020871 -0.021238 -12.753404 -0.149096 -0.724871 30.330132 -6.335780 -5.001236 -10.566745 15.053501 3.357626 7.016006 -12.368941 19.930901 -62.640793 -53.075153 -9.276906 2.959731 -15.433793 34.937340 -45.614079 7.723719 -23.032572 -7.134897 12.240006 19.883015 62.718651 53.082218 -9.207981 -3.001329 15.188094 34.948444 45.611305 -7.727596 -23.033819 -12.968689 18.124655 42.963219 45.353935 1.264164 -0.462944 18.038469 1.443535 -1.240515 -13.556792 -17.535757 -41.272781 45.353977 -1.266047 0.458370 18.216911 -2.802102 2.442136 
0.000000 6.587312 0.952190 -82.000397 0.000000 0.000000 -8.528577 -0.020871 -0.021238 -12.327811 -0.149159 -0.724880 30.330132 -6.335780 -5.001236 -10.408015 15.121735 3.402129 6.796731 -12.555798 19.597797 -62.383308 -53.017433 -9.480092 2.962541 -15.416555 34.938137 -45.614079 7.723719 -23.032572 -6.907684 12.436028 19.553802 62.454853 53.023880 -9.416654 -3.001329 15.188094 34.948444 45.611305 -7.727596 -23.033819 -13.017217 18.190464 43.142887 45.353935 1.264164 -0.462944 18.046093 1.321385 -1.088592 -13.565734 -17.644703 -41.572674 45.353977 -1.266047 0.458370 18.207958 -2.583286 2.203576 
0.000000 6.556674 0.952190 -82.000397 0.000000 0.000000 -8.528577 -0.020871 -0.021238 -11.902299 -0.149223 -0.724889 30.330132 -6.335780 -5.001236 -10.249185 15.189849 3.446841 6.576228 -12.741376 19.263784 -62.126522 -52.959171 -9.682557 2.965351 -15.399321 34.938931 -45.614079 7.723719 -23.032572 -6.679188 12.630735 19.223608 62.191784 52.964973 -9.624598 -3.001329 15.188094 34.948444 45.611305 -7.727596 -23.033819 -13.065548 18.256416 43.322567 45.353935 1.264164 -0.462944 18.054029 1.199260 -0.936667 -13.574080 -17.753679 -41.872692 45.353977 -1.266047 0.458370 18.199919 -2.364460 1.965117 
0.000000 6.526035 0.952190 -82.000397 0.000000 0.000000 -8.528577 -0.020871 -0.021238 -11.476881 -0.149286 -0.724898 30.330132 -6.335780 -5.001236 -10.090248 15.257837 3.491762 6.354497 -12.925653 18.928850 -61.870403 -52.900345 -9.884309 2.968161 -15.382087 34.939732 -45.614079 7.723719 -23.032572 -6.449418 12.824117 18.892439 61.929443 52.905502 -9.831804 -3.001329 15.188094 34.948444 45.611305 -7.727596 -23.033819 -13.113668 18.322504 43.502232 45.353935 1.264164 -0.462944 18.062296 1.077162 -0.784738 -13.581833 -17.862688 -42.172852 45.353977 -1.266047 0.458370 18.192793 -2.145629 1.726754 
0.000000 6.495397 0.952190 -82.000397 0.000000 0.000000 -8.528577 -0.020871 -0.021238 -11.051572 -0.149349 -0.724908 30.330132 -6.335780 -5.001236 -9.931214 15.325702 3.536891 6.131552 -13.108624 18.593019 -61.615021 -52.841003 -10.085345 2.970969 -15.364850 34.940521 -45.614079 7.723719 -23.032572 -6.218379 13.016149 18.560287 61.667847 52.845470 -10.038256 -3.001329 15.188094 34.948444 45.611305 -7.727596 -23.033819 -13.161596 18.388737 43.681915 45.353935 1.264164 -0.462944 18.070889 0.955094 -0.632805 -13.588988 -17.971716 -42.473137 45.353977 -1.266047 0.458370 18.186579 -1.926803 1.488486 
0.000000 6.464758 0.952190 -82.000397 0.000000 0.000000 -8.528577 -0.020871 -0.021238 -10.626377 -0.149412 -0.724918 30.330132 -6.335780 -5.001236 -9.772080 15.393442 3.582227 5.907395 -13.290268 18.256287 -61.360325 -52.781101 -10.285652 2.973779 -15.347618 34.941322 -45.614079 7.723719 -23.032572 -5.986080 13.206822 18.227173 61.406960 52.784855 -10.243953 -3.001329 15.188094 34.948444 45.611305 -7.727596 -23.033819 -13.209312 18.455101 43.861580 45.353935 1.264164 -0.462944 18.079792 0.833055 -0.480868 -13.595546 -18.080759 -42.773537 45.353977 -1.266047 0.458370 18.181278 -1.707988 1.250308 
0.000000 6.434119 0.952190 -82.000397 0.000000 0.000000 -8.528577 -0.020871 -0.021238 -10.201312 -0.149474 -0.724929 30.330132 -6.335780 -5.001236 -9.612846 15.461061 3.627772 5.682039 -13.470579 17.918671 -61.106358 -52.720695 -10.485240 2.976585 -15.330382 34.942108 -45.614079 7.723719 -23.032572 -5.752528 13.396122 17.893095 61.146820 52.723686 -10.448909 -3.001329 15.188094 34.948444 45.611305 -7.727596 -23.033819 -13.256826 18.521606 44.041256 45.353935 1.264164 -0.462944 18.089027 0.711048 -0.328926 -13.601503 -18.189816 -43.074070 45.353977 -1.266047 0.458370 18.176889 -1.489191 1.012217 
0.000000 6.403481 0.952190 -82.000397 0.000000 0.000000 -8.528577 -0.020871 -0.021238 -9.776387 -0.149537 -0.724940 30.330132 -6.335780 -5.001236 -9.453514 15.528557 3.673524 5.455491 -13.649541 17.580172 -60.853085 -52.659729 -10.684089 2.979393 -15.313148 34.942902 -45.614079 7.723719 -23.032572 -5.517732 13.584037 17.558073 60.887444 52.661972 -10.653100 -3.001329 15.188094 34.948444 45.611305 -7.727596 -23.033819 -13.304136 18.588245 44.220913 45.353935 1.264164 -0.462944 18.098585 0.589075 -0.176978 -13.606863 -18.298878 -43.374706 45.353977 -1.266047 0.458370 18.173407 -1.270419 0.774210 
